<svg xmlns="http://www.w3.org/2000/svg" viewBox="0 0 32 32" width="32" height="32">
  <defs>
    <linearGradient id="bg" x1="0" y1="0" x2="1" y2="1">
      <stop offset="0%" stop-color="#2563eb"/>
      <stop offset="100%" stop-color="#4f46e5"/>
    </linearGradient>
  </defs>
  <rect width="32" height="32" rx="7" fill="url(#bg)"/>
  <!-- Folded document -->
  <path d="M10 6h7l5 5v15a1 1 0 0 1-1 1H10a1 1 0 0 1-1-1V7a1 1 0 0 1 1-1z" fill="white" fill-opacity="0.95"/>
  <path d="M17 6l5 5h-4a1 1 0 0 1-1-1V6z" fill="white" fill-opacity="0.5"/>
  <!-- Text lines -->
  <rect x="12" y="15" width="8" height="1.5" rx="0.75" fill="#2563eb" fill-opacity="0.5"/>
  <rect x="12" y="19" width="6" height="1.5" rx="0.75" fill="#2563eb" fill-opacity="0.35"/>
  <rect x="12" y="23" width="7" height="1.5" rx="0.75" fill="#2563eb" fill-opacity="0.2"/>
</svg>
